<?xml version="1.0" encoding="UTF-8" standalone="no"?>
<!DOCTYPE svg PUBLIC "-//W3C//DTD SVG 1.1//EN" "http://www.w3.org/Graphics/SVG/1.1/DTD/svg11.dtd">
<svg version="1.1" xmlns="http://www.w3.org/2000/svg" xmlns:xlink="http://www.w3.org/1999/xlink" preserveAspectRatio="xMidYMid meet" viewBox="0 0 62 51" width="62" height="51"><defs><path d="M0 0L1 0L1 51L0 51L0 0Z" id="b3tJDMmIu0"></path><path d="M61 0L62 0L62 51L61 51L61 0Z" id="caYh3APTn"></path><path d="M0 0L62 0L62 1L0 1L0 0Z" id="bC0iOCIr4"></path><path d="M0 50L62 50L62 51L0 51L0 50Z" id="c3F0batMV"></path><path d="M0 10L62 10L62 11L0 11L0 10Z" id="b1M2fv0Mje"></path><path d="M0 20L62 20L62 21L0 21L0 20Z" id="c1pYMU4fOt"></path><path d="M0 30L62 30L62 31L0 31L0 30Z" id="c22sq3LlP"></path><path d="M0 40L62 40L62 41L0 41L0 40Z" id="d1hQVRiE8e"></path><path d="M30 1L32 1L32 50L30 50L30 1Z" id="d3uETGXCML"></path><path d="M15 1L16 1L16 50L15 50L15 1Z" id="e1CcB7w1U"></path><path d="M46 1L47 1L47 50L46 50L46 1Z" id="c9E0v1C9h"></path><path d="M1 1L15 1L15 10L1 10L1 1Z" id="b201rxx1YD"></path><path d="M1 11L15 11L15 20L1 20L1 11Z" id="c1F2cyOLQp"></path><path d="M1 21L15 21L15 30L1 30L1 21Z" id="ah3KYdkd"></path><path d="M1 31L15 31L15 40L1 40L1 31Z" id="a4dY6CUdW"></path><path d="M1 41L15 41L15 50L1 50L1 41Z" id="a1zFHzt9al"></path><path d="M16 1L30 1L30 10L16 10L16 1Z" id="aJ6XJAMnc"></path><path d="M16 11L30 11L30 20L16 20L16 11Z" id="i2tscmKvtY"></path><path d="M16 21L30 21L30 30L16 30L16 21Z" id="b7j9Eeh95"></path><path d="M16 31L30 31L30 40L16 40L16 31Z" id="fJs52ibfo"></path><path d="M16 41L30 41L30 50L16 50L16 41Z" id="ah9veR30c"></path><path d="M32 1L46 1L46 10L32 10L32 1Z" id="agRIkDqcC"></path><path d="M32 11L46 11L46 20L32 20L32 11Z" id="aoFG7PmkX"></path><path d="M32 21L46 21L46 30L32 30L32 21Z" id="m2JY3DhBRD"></path><path d="M32 31L46 31L46 40L32 40L32 31Z" id="b1col0ffNB"></path><path d="M32 41L46 41L46 50L32 50L32 41Z" id="f2tJPgyNOg"></path><path d="M47 1L61 1L61 10L47 10L47 1Z" id="b2DYet8xE2"></path><path d="M47 11L61 11L61 20L47 20L47 11Z" id="a31NWabfD8"></path><path d="M47 21L61 21L61 30L47 30L47 21Z" id="a1dq2dhB67"></path><path d="M47 31L61 31L61 40L47 40L47 31Z" id="aI63Y5Oyk"></path><path d="M47 41L61 41L61 50L47 50L47 41Z" id="f9Qu14wCG"></path></defs><g><g><g><use xlink:href="#b3tJDMmIu0" opacity="1" fill="#363636" fill-opacity="1"></use></g><g><use xlink:href="#caYh3APTn" opacity="1" fill="#363636" fill-opacity="1"></use></g><g><use xlink:href="#bC0iOCIr4" opacity="1" fill="#363636" fill-opacity="1"></use></g><g><use xlink:href="#c3F0batMV" opacity="1" fill="#363636" fill-opacity="1"></use></g><g><use xlink:href="#b1M2fv0Mje" opacity="1" fill="#363636" fill-opacity="1"></use></g><g><use xlink:href="#c1pYMU4fOt" opacity="1" fill="#363636" fill-opacity="1"></use></g><g><use xlink:href="#c22sq3LlP" opacity="1" fill="#363636" fill-opacity="1"></use></g><g><use xlink:href="#d1hQVRiE8e" opacity="1" fill="#363636" fill-opacity="1"></use></g><g><use xlink:href="#d3uETGXCML" opacity="1" fill="#363636" fill-opacity="1"></use></g><g><use xlink:href="#e1CcB7w1U" opacity="1" fill="#363636" fill-opacity="1"></use></g><g><use xlink:href="#c9E0v1C9h" opacity="1" fill="#363636" fill-opacity="1"></use></g><g><use xlink:href="#b201rxx1YD" opacity="1" fill="#bedbf0" fill-opacity="1"></use></g><g><use xlink:href="#c1F2cyOLQp" opacity="1" fill="#f5aca4" fill-opacity="1"></use></g><g><use xlink:href="#ah3KYdkd" opacity="1" fill="#fac8a8" fill-opacity="1"></use></g><g><use xlink:href="#a4dY6CUdW" opacity="1" fill="#ffda40" fill-opacity="1"></use></g><g><use xlink:href="#a1zFHzt9al" opacity="1" fill="#bee6de" fill-opacity="1"></use></g><g><use xlink:href="#aJ6XJAMnc" opacity="1" fill="#e4e4e4" fill-opacity="1"></use></g><g><use xlink:href="#i2tscmKvtY" opacity="1" fill="#dfcfeb" fill-opacity="1"></use></g><g><use xlink:href="#b7j9Eeh95" opacity="1" fill="#facfd4" fill-opacity="1"></use></g><g><use xlink:href="#fJs52ibfo" opacity="1" fill="#fafafa" fill-opacity="1"></use></g><g><use xlink:href="#ah9veR30c" opacity="1" fill="#bde0b1" fill-opacity="1"></use></g><g><use xlink:href="#agRIkDqcC" opacity="1" fill="#e4e4e4" fill-opacity="1"></use></g><g><use xlink:href="#aoFG7PmkX" opacity="1" fill="#fafafa" fill-opacity="1"></use></g><g><use xlink:href="#m2JY3DhBRD" opacity="1" fill="#fafafa" fill-opacity="1"></use></g><g><use xlink:href="#b1col0ffNB" opacity="1" fill="#fafafa" fill-opacity="1"></use></g><g><use xlink:href="#f2tJPgyNOg" opacity="1" fill="#bde0b1" fill-opacity="1"></use></g><g><use xlink:href="#b2DYet8xE2" opacity="1" fill="#fafafa" fill-opacity="1"></use></g><g><use xlink:href="#a31NWabfD8" opacity="1" fill="#f5aca4" fill-opacity="1"></use></g><g><use xlink:href="#a1dq2dhB67" opacity="1" fill="#fac8a8" fill-opacity="1"></use></g><g><use xlink:href="#aI63Y5Oyk" opacity="1" fill="#ffda40" fill-opacity="1"></use></g><g><use xlink:href="#f9Qu14wCG" opacity="1" fill="#fafafa" fill-opacity="1"></use></g></g></g></svg>